<?xml version="1.0" encoding="UTF-8"?>
<svg version="1.1" xmlns="http://www.w3.org/2000/svg" width="512" height="512">
<path d="M0 0 C7.85643195 6.57254727 13.52103638 14.91512372 15.0055666 25.20786572 C15.82960442 35.63857435 13.68129737 46.14852082 11.65551758 56.33081055 C11.38746141 57.70995181 11.12014337 59.08923671 10.85348988 60.46864986 C10.12724971 64.21451811 9.39082731 67.95831926 8.65262461 71.70184565 C7.85690118 75.74707621 7.07104546 79.79422456 6.2840271 83.84115601 C4.92429221 90.82630088 3.55873255 97.81028546 2.1890564 104.79348755 C0.0281149 115.81123936 -2.12200113 126.83108835 -4.27026367 137.85131836 C-5.00368217 141.61306333 -5.73716998 145.37479479 -6.47068787 149.13652039 C-6.65360817 150.07464272 -6.83652847 151.01276506 -7.02499181 151.97931534 C-8.33593955 158.70182659 -9.64857668 165.42400676 -10.96180725 172.14607239 C-15.98476393 197.86093818 -20.97395818 223.58216168 -25.93660808 249.30873179 C-26.63547645 252.93136046 -27.33466297 256.5539277 -28.03386039 260.17649287 C-30.87343196 274.88850966 -33.71250594 289.60062166 -36.54598999 304.31381226 C-37.94171032 311.56114673 -39.33971348 318.80803659 -40.74049926 326.05439377 C-41.58799683 330.43912661 -42.4327969 334.82436609 -43.27532572 339.21005625 C-43.90850248 342.50131292 -44.54600269 345.79172923 -45.18286133 349.08227539 C-45.40239566 350.22964519 -45.62192999 351.37701498 -45.84811687 352.55915356 C-51.53113626 381.80432951 -51.53113626 381.80432951 -64.76953125 391.0546875 C-74.95894926 397.42943155 -84.60466184 398.90542273 -96.40234375 396.87890625 C-108.41331108 393.93886668 -115.80729525 387.12346583 -122.2890625 376.93359375 C-131.10215696 359.79572932 -123.89235699 338.09860158 -120.32589889 320.30034304 C-119.52525133 316.28545893 -118.74378011 312.26683835 -117.96003723 308.24862671 C-116.60372543 301.30776861 -115.23631052 294.36917792 -113.86096191 287.43206787 C-111.68767224 276.46950229 -109.53471431 265.50299957 -107.38574219 254.53564453 C-106.83475821 251.72426675 -106.28374175 248.91289533 -105.73270905 246.10152709 C-105.36204453 244.21038921 -104.99140823 242.31924579 -104.6207999 240.42809689 C-103.49247102 234.67140599 -102.36219107 228.91510195 -101.23044431 223.15908206 C-95.88444291 195.96819481 -90.62207241 168.76222706 -85.42506909 141.54248142 C-84.52990103 136.85521485 -83.63345296 132.16819311 -82.73716736 127.48114014 C-79.81715583 112.20800158 -76.89929795 96.93447548 -73.99737352 81.65788877 C-72.72497495 74.96255169 -71.44593032 68.26850454 -70.16188532 61.57539141 C-69.28162587 56.98536243 -68.40888323 52.39399945 -67.5423556 47.80135942 C-67.01272877 45.00501047 -66.4754209 42.21017873 -65.93590367 39.41572285 C-65.57741226 37.54717214 -65.2279106 35.67690345 -64.878829 33.80657196 C-61.94206682 18.71070559 -57.38129639 7.51351135 -44.76953125 -1.9453125 C-31.03397144 -11.18211753 -13.10404283 -9.20425011 0 0 Z " fill="#000000" transform="translate(306.76953125,60.9453125)"/>
<path d="M0 0 C4.25574476 3.16733372 8.06864348 6.7469936 11.9140625 10.38671875 C14.65308358 12.96698185 17.51528349 15.35293832 20.44921875 17.7109375 C24.21510064 20.74201317 27.83001631 23.87425327 31.38671875 27.1484375 C35.85656995 31.26222659 40.47716768 35.11931047 45.203125 38.93359375 C47.83380432 41.10476577 50.36614299 43.35085107 52.88671875 45.6484375 C56.30411247 48.76302418 59.79194225 51.7403037 63.38671875 54.6484375 C67.84948088 58.25876192 72.11391408 62.03271679 76.35546875 65.8984375 C79.86335767 69.01656099 83.51536364 71.9437551 87.1640625 74.89453125 C90.68344432 77.80799367 94.04155066 80.87962879 97.41015625 83.96484375 C99.88671774 86.14843661 102.44975701 88.14639343 105.07421875 90.1484375 C113.61058721 96.91588816 118.47507182 104.91349671 121.88671875 115.1484375 C122.68755561 128.18501127 122.16145082 138.59924183 113.703125 149.15625 C107.74688614 155.68889907 100.72583461 161.15152594 93.87109375 166.69921875 C90.49910512 169.4665445 87.19006429 172.2999069 83.88671875 175.1484375 C79.76216264 178.70310964 75.61463563 182.2163638 71.38671875 185.6484375 C65.98595703 190.03556652 60.71204175 194.56067162 55.4375 199.09765625 C48.17640872 205.34271071 40.88118446 211.544749 33.44921875 217.5859375 C29.20277599 221.04119442 25.03415774 224.57586328 20.88671875 228.1484375 C-10.77650112 255.3742532 -10.77650112 255.3742532 -29.9765625 253.93359375 C-42.53347177 252.06870623 -50.39887938 245.97397307 -58.36328125 236.4609375 C-64.0848786 225.63077108 -65.72420264 215.40795572 -62.55078125 203.6484375 C-58.01219487 190.34354045 -48.66085776 182.77904507 -38.11328125 174.1484375 C-36.66501953 172.95734375 -36.66501953 172.95734375 -35.1875 171.7421875 C-33.4328736 170.30729302 -31.67506394 168.87628214 -29.9140625 167.44921875 C-26.64998342 164.76784834 -23.44077405 162.02780887 -20.23828125 159.2734375 C-19.64869629 158.76635254 -19.05911133 158.25926758 -18.45166016 157.73681641 C-17.86175293 157.22940918 -17.2718457 156.72200195 -16.6640625 156.19921875 C-7.58296165 148.38882673 1.59484955 140.70724645 10.88671875 133.1484375 C12.95026754 131.46221588 15.01218545 129.77401329 17.07421875 128.0859375 C18.67838542 126.7734375 20.28255208 125.4609375 21.88671875 124.1484375 C19.1529706 120.5119167 16.33215285 117.70898329 12.76171875 114.8984375 C9.03367178 111.91204444 5.41304351 108.8705745 1.88671875 105.6484375 C-1.50926807 102.55288554 -4.97499656 99.59692543 -8.55078125 96.7109375 C-13.32324328 92.85135147 -17.84437234 88.77643759 -22.359375 84.62109375 C-25.94184107 81.40449656 -29.67335717 78.39558772 -33.41796875 75.37109375 C-36.96755155 72.44397402 -40.37085767 69.37377966 -43.765625 66.26953125 C-45.92401191 64.31944124 -48.13283747 62.45239994 -50.36328125 60.5859375 C-59.04204223 52.9766804 -63.26266246 44.45420705 -64.30859375 33.01171875 C-64.81016162 22.62926385 -61.76202424 12.96218734 -54.9609375 5.078125 C-39.61892705 -10.94503179 -18.24016504 -12.05835179 0 0 Z " fill="#000000" transform="translate(390.11328125,121.8515625)"/>
<path d="M0 0 C8.350715 6.81377359 14.10342154 15.39596547 15.6875 26.1875 C16.61957086 38.16849423 13.75897633 48.65886936 6.125 58.125 C1.98321749 62.42608184 -2.77751654 66.06372232 -7.421875 69.80078125 C-10.30487572 72.18120482 -13.06328833 74.65429782 -15.8125 77.1875 C-20.2823512 81.30128909 -24.90294893 85.15837297 -29.62890625 88.97265625 C-32.25958557 91.14382827 -34.79192424 93.38991357 -37.3125 95.6875 C-40.72989372 98.80208668 -44.2177235 101.7793662 -47.8125 104.6875 C-52.3448377 108.35562076 -56.69719669 112.17656088 -61.0078125 116.1015625 C-64.05680706 118.86116097 -67.17590547 121.52821334 -70.3125 124.1875 C-66.64552851 127.95025059 -62.81911952 131.41632748 -58.8125 134.8125 C-58.20301514 135.33175049 -57.59353027 135.85100098 -56.96557617 136.38598633 C-55.08300846 137.9886111 -53.19782233 139.5881174 -51.3125 141.1875 C-50.17307607 142.15743343 -49.03374945 143.12748119 -47.89453125 144.09765625 C-42.92621942 148.32178968 -37.93560537 152.5114085 -32.875 156.625 C-28.01406299 160.58026025 -23.2584244 164.64723471 -18.51293945 168.73925781 C-14.90704054 171.84176631 -11.26055175 174.88208523 -7.5625 177.875 C-6.68722656 178.59429687 -5.81195313 179.31359375 -4.91015625 180.0546875 C-3.15965188 181.49194372 -1.39623421 182.91359742 0.37890625 184.3203125 C9.50042671 191.90571997 14.62835795 201.63867241 15.9375 213.44140625 C16.46586933 223.7280967 13.25359606 233.46955744 6.53515625 241.2578125 C-1.29802002 249.43876192 -9.88646409 254.07066942 -21.3125 255.1875 C-34.36761871 255.3580313 -43.6984582 250.62633492 -53.3125 242.1875 C-54.3299104 241.32561518 -55.349541 240.46634602 -56.37109375 239.609375 C-59.69761099 236.81693626 -63.00550477 234.00300567 -66.3125 231.1875 C-68.51944271 229.31085682 -70.72774496 227.43583084 -72.9375 225.5625 C-73.47938965 225.10311035 -74.0212793 224.6437207 -74.57958984 224.17041016 C-77.94124011 221.32765194 -81.33317616 218.52648203 -84.75 215.75 C-89.61379025 211.79241812 -94.37131231 207.72207554 -99.12084961 203.62915039 C-102.64548919 200.59804711 -106.20289882 197.61764684 -109.8125 194.6875 C-114.65846789 190.7537143 -119.39348528 186.70302241 -124.12109375 182.62890625 C-127.64567903 179.59791716 -131.20298832 176.61757419 -134.8125 173.6875 C-140.31747207 169.21521841 -145.70612673 164.61593884 -151.0703125 159.9765625 C-152.96326567 158.33979848 -154.86740028 156.73349068 -156.8046875 155.1484375 C-163.94893269 149.24432544 -169.30636672 141.38422647 -170.6159668 132.0168457 C-170.74889323 129.7730575 -170.77986309 127.55993868 -170.75 125.3125 C-170.74387695 124.52456055 -170.73775391 123.73662109 -170.73144531 122.92480469 C-170.49277101 114.0130735 -167.65809571 107.31496094 -162.3125 100.1875 C-161.631875 99.259375 -160.95125 98.33125 -160.25 97.375 C-157.02930103 93.58129324 -153.08029024 90.63846489 -149.20703125 87.54296875 C-146.49262565 85.33407998 -143.89531236 83.04786919 -141.3125 80.6875 C-137.01258209 76.76858748 -132.55330453 73.09579131 -128.03125 69.4375 C-125.39102271 67.25248431 -122.8452028 64.99578609 -120.3125 62.6875 C-116.01258209 58.76858748 -111.55330453 55.09579131 -107.03125 51.4375 C-103.53341849 48.54274289 -100.19464596 45.49160461 -96.83984375 42.43359375 C-94.24287607 40.12562402 -91.57845987 37.93194137 -88.875 35.75 C-85.07162497 32.67413412 -81.41167348 29.49996834 -77.8125 26.1875 C-73.34369751 22.07467609 -68.7276325 18.21552146 -63.99609375 14.41015625 C-61.34287324 12.21265629 -58.83018648 9.91313619 -56.3125 7.5625 C-40.29293664 -6.95919611 -19.04920368 -13.38107904 0 0 Z " fill="#000000" transform="translate(170.3125,120.8125)"/>
</svg>
